<svg width="48" height="48" viewBox="0 0 48 48" fill="none" xmlns="http://www.w3.org/2000/svg">
<circle cx="24" cy="24" r="22.5" fill="black" stroke="#FFFF00" stroke-width="3"/>
<path d="M9.21058 32.75L23.5 8L37.7894 32.75H9.21058Z" fill="#FFC000" stroke="#6C4F00" stroke-width="2"/>
<path d="M24 18.3636L23.8864 26.7273H22.5682L22.4545 18.3636H24ZM23.2273 30.0909C22.947 30.0909 22.7064 29.9905 22.5057 29.7898C22.3049 29.589 22.2045 29.3485 22.2045 29.0682C22.2045 28.7879 22.3049 28.5473 22.5057 28.3466C22.7064 28.1458 22.947 28.0455 23.2273 28.0455C23.5076 28.0455 23.7481 28.1458 23.9489 28.3466C24.1496 28.5473 24.25 28.7879 24.25 29.0682C24.25 29.2538 24.2027 29.4242 24.108 29.5795C24.017 29.7348 23.8939 29.8598 23.7386 29.9545C23.5871 30.0455 23.4167 30.0909 23.2273 30.0909Z" fill="black"/>
</svg>
