<svg width="48" height="48" viewBox="0 0 48 48" fill="none" xmlns="http://www.w3.org/2000/svg">
<circle cx="24" cy="24" r="22.5" fill="black" stroke="#FF0000" stroke-width="3"/>
<path d="M13.4265 14.8652C14.366 14.5401 15.5489 16.3668 15.8828 17.034C16.6941 18.6525 16.1567 20.6603 15.5625 22.2708C14.575 24.9538 13.3953 27.7103 13.8422 30.6247C14.2314 33.1683 15.6225 35.5781 17.7296 37.0789C22.2145 40.276 28.3203 38.5709 31.8417 34.7436C34.4133 31.9485 36.1552 27.2514 34.8121 23.509C33.5756 20.0653 31.1057 18.8183 31.0881 18.8095C31.7576 19.1459 32.4111 20.4112 32.6266 21.0695C32.9854 22.1643 32.3142 24.9682 30.6156 24.06C30.2103 23.843 29.9645 23.4017 29.8732 22.9516C29.6577 21.8856 29.7274 20.6539 29.7018 19.5623C29.6217 16.1626 29.0082 13.5814 26.3205 11.3366C23.8234 9.25434 20.668 8.25806 17.4309 8.25806C17.7072 8.25806 18.11 8.51113 18.3519 8.62085C19.3249 9.06373 20.628 9.73005 21.2054 10.6583C22.1913 12.2424 22.2697 14.1997 22.0063 15.9984C21.8885 16.8137 21.4112 20.5153 19.9536 19.9099C19.6933 19.8018 19.5164 19.5487 19.4243 19.282C19.3322 19.0153 19.3105 18.731 19.2729 18.4515C19.194 17.916 19.0205 17.3989 18.7603 16.9243C18.2586 16.0036 17.4462 15.2912 16.4679 14.9141C15.4896 14.5369 14.4092 14.5196 13.4193 14.8652H13.4265Z" fill="url(#paint0_linear_1_39)"/>
<path d="M16.7694 29.8487C16.7694 29.8487 14.6807 37.7629 22.7527 38.7503C25.0311 39.0282 27.4738 38.6758 29.1596 36.9972C32.4255 33.7497 31.7864 28.1212 28.072 25.5496C28.3924 25.7723 28.5838 26.493 28.6631 26.8382C28.8889 27.8185 28.6302 29.0927 27.847 29.775C28.0256 29.0038 28.1193 28.2806 27.835 27.5125C27.4195 26.3597 26.7981 25.2919 26.001 24.3611C25.5683 23.8804 25.085 23.4479 24.5594 23.0709C23.3669 22.19 21.9606 21.6958 22.317 19.8851C22.53 18.8103 23.5599 17.8477 24.6395 17.6747C23.4776 17.8376 22.4103 18.4047 21.625 19.2764C20.1546 20.9238 19.7246 23.3472 19.9905 25.4855C20.1266 26.5763 20.4942 27.5133 20.9619 28.4952C21.5129 29.6525 21.9478 31.07 21.2022 32.2417C20.2724 33.7049 17.4349 33.7946 16.7694 29.8487Z" fill="#FDB619"/>
<path d="M25.3667 38.7127C27.268 38.3651 28.213 36.3205 27.5291 34.5682C27.2969 33.9795 26.9022 33.469 26.391 33.0962C25.8945 32.7342 25.253 32.57 24.8862 32.0438C24.5763 31.5986 24.147 30.362 24.573 29.8935C24.573 29.8935 23.2756 31.3391 23.8138 33.2139C24.352 35.0887 22.3122 36.3741 21.159 33.6944C21.1581 33.696 19.5997 39.765 25.3667 38.7127Z" fill="#FEF3B4"/>
<defs>
<linearGradient id="paint0_linear_1_39" x1="24.2303" y1="2.83938" x2="24.585" y2="54.0893" gradientUnits="userSpaceOnUse">
<stop stop-color="#EC4032"/>
<stop offset="0.43" stop-color="#F2682B"/>
<stop offset="0.79" stop-color="#F68326"/>
<stop offset="1" stop-color="#F78D24"/>
</linearGradient>
</defs>
</svg>
