<svg id="Layer_1" data-name="Layer 1" xmlns="http://www.w3.org/2000/svg" viewBox="0 0 122.88 100.05"><defs><style>.cls-1{fill-rule:evenodd;}.cls-2{fill:#fff;}</style></defs><path class="cls-1" d="M6.38,0H116.49a6.41,6.41,0,0,1,6.39,6.38V93.67a6.4,6.4,0,0,1-6.39,6.38H6.38A6.4,6.4,0,0,1,0,93.67V6.38A6.4,6.4,0,0,1,6.38,0ZM48.87,62.51h-13L34,68.64H22.24l14-37.21H48.84L62.79,68.64H50.73l-1.86-6.13Zm-2.43-8.06L42.38,41.08,38.3,54.45ZM64.05,68.64V31.43H83.21a27.36,27.36,0,0,1,8.14.92,8.69,8.69,0,0,1,4.55,3.39,10.32,10.32,0,0,1,1.72,6,10,10,0,0,1-5,9,14,14,0,0,1-4,1.47,11.48,11.48,0,0,1,3,1.37,11.83,11.83,0,0,1,1.84,2A14.68,14.68,0,0,1,95,57.9l5.59,10.75h-13L81.51,57.3a8.72,8.72,0,0,0-2.08-2.87,4.89,4.89,0,0,0-2.82-.86h-1V68.64ZM75.59,46.55h4.86a17.4,17.4,0,0,0,3-.51,3,3,0,0,0,1.86-1.17A3.78,3.78,0,0,0,85,39.93c-.76-.65-2.19-1-4.3-1H75.59v7.59Z"/><rect x="18.43" y="23.43" width="87.32" height="58.21"/><path class="cls-2" d="M67.76,79.31a37.44,37.44,0,0,1-11.94-1.78,18.42,18.42,0,0,1-8.43-5.47,14.17,14.17,0,0,1-3.12-9.47,17.37,17.37,0,0,1,3.1-10.31,26.05,26.05,0,0,1,8-7.32l-1.64,3.63a20.56,20.56,0,0,1-6.12-5.2,10.49,10.49,0,0,1-2-6.39q0-6.2,3.67-9.58a12.78,12.78,0,0,1,9-3.39,22.08,22.08,0,0,1,9.91,2.6l-1,4.56a28,28,0,0,0-4.51-1.09,27.31,27.31,0,0,0-4.4-.37A14.73,14.73,0,0,0,52,30.92a3.87,3.87,0,0,0-2.57,3.67,5.25,5.25,0,0,0,1,2.89A13.7,13.7,0,0,0,53,40.33a15.68,15.68,0,0,0,3.23,2.18,7.51,7.51,0,0,0,1.42.57,4.36,4.36,0,0,0,2.33.06,8.76,8.76,0,0,0,1.19-.4L65.62,41l4.07-1.57c1.31-.5,2.6-1,3.84-1.4l.23.16L73.27,44l-6.74,2.36c-2.22.77-4.28,1.6-6.19,2.46a41.49,41.49,0,0,0-6.12,3.37,16.45,16.45,0,0,0-4.46,4.27,9.4,9.4,0,0,0-1.66,5.52,8.11,8.11,0,0,0,2.79,6.22A18.08,18.08,0,0,0,58.35,72a38.28,38.28,0,0,0,10.33,1.3A53.35,53.35,0,0,0,74.13,73a49.09,49.09,0,0,0,5.56-.9l-1.18,6.16A59.12,59.12,0,0,1,67.76,79.31Z"/></svg>